#N canvas 335 55 1155 702 12;
#X obj 25 550 loadbang;
#X msg 963 489 \; pd quit;
#X msg 25 591 \; pd dsp \$1;
#X obj 25 572 tgl 15 0 empty empty empty 17 7 0 10 #fcfcfc #000000
#000000 0 1;
#X obj 26 117 receive sec1;
#X obj 26 163 receive sec2;
#X obj 26 256 receive sec4;
#X obj 26 210 receive sec3;
#X obj 841 122 receive input_file;
#X obj 839 312 receive output_file;
#X listbox 26 141 12 0 0 0 - - - 0;
#X listbox 26 187 12 0 0 0 - - - 0;
#X listbox 26 234 12 0 0 0 - - - 0;
#X listbox 26 279 12 0 0 0 - - - 0;
#X obj 498 209 biquad~;
#X obj 466 278 biquad~;
#X obj 951 241 readsf~;
#X msg 951 170 open \$1;
#X obj 1018 170 loadbang;
#X obj 967 215 tgl 15 0 empty empty empty 17 7 0 10 #fcfcfc #000000
#000000 0 1;
#X obj 841 170 symbol;
#X obj 841 146 t b a;
#X obj 997 265 bng 15 250 50 0 empty empty empty 17 7 0 10 #fcfcfc
#000000 #000000;
#X obj 898 447 writesf~;
#X msg 839 414 open \$1;
#X msg 915 423 start;
#X msg 963 423 stop;
#X obj 1018 195 delay 100;
#X obj 839 336 t b a;
#X obj 839 359 symbol;
#X obj 963 464 delay 10;
#X obj 963 446 bng 15 250 50 0 empty empty empty 17 7 0 10 #fcfcfc
#000000 #000000;
#X listbox 841 194 24 0 0 0 - - - 0;
#X listbox 26 325 12 0 0 0 - - - 0;
#X listbox 26 371 12 0 0 0 - - - 0;
#X listbox 26 418 12 0 0 0 - - - 0;
#X listbox 26 464 12 0 0 0 - - - 0;
#X obj 26 301 receive sec5;
#X obj 26 347 receive sec6;
#X obj 26 394 receive sec7;
#X obj 26 440 receive sec8;
#X obj 557 135 biquad~;
#X listbox 866 387 31 0 0 0 - - - 0;
#X obj 497 122 != 0;
#X floatatom 497 146 5 0 0 0 - - - 0;
#X obj 442 188 != 0;
#X floatatom 442 212 5 0 0 0 - - - 0;
#X obj 415 259 != 0;
#X floatatom 415 283 5 0 0 0 - - - 0;
#X obj 354 338 != 0;
#X floatatom 354 362 5 0 0 0 - - - 0;
#X obj 330 414 != 0;
#X floatatom 330 438 5 0 0 0 - - - 0;
#X obj 263 487 != 0;
#X floatatom 263 511 5 0 0 0 - - - 0;
#X obj 236 559 != 0;
#X floatatom 236 583 5 0 0 0 - - - 0;
#X obj 526 184 *~;
#X obj 557 184 *~;
#X obj 576 609 dac~;
#X obj 575 577 *~ 1;
#X text 627 182 If biquad in use \, gains are 1 \, 0 \, else gains
are 0 \, 1, f 19;
#X obj 466 253 *~;
#X obj 497 253 *~;
#X text 352 121 sends out 1 if list received \, therefore if biquad~
is used, f 19;
#X obj 406 350 biquad~;
#X obj 374 419 biquad~;
#X obj 434 325 *~;
#X obj 465 325 *~;
#X obj 374 394 *~;
#X obj 405 394 *~;
#X obj 315 495 biquad~;
#X obj 283 564 biquad~;
#X obj 343 470 *~;
#X obj 374 470 *~;
#X obj 283 539 *~;
#X obj 314 539 *~;
#X obj 223 636 biquad~;
#X obj 251 611 *~;
#X obj 282 611 *~;
#X obj 575 160 expr abs($i1 - 1);
#X text 539 86 ROUTES AUDIO EITHER TO DAC OR TO NEXT BIQUAD \, DEPENDING
ON HOW MANY SECTIONS ARE SENT FROM PYTHON, f 34;
#X text 841 98 FILE I/O;
#X text 24 83 RECEIVES SECTIONS FROM SIGNAL.TF2SOS(), f 20;
#X obj 997 285 delay 10;
#X text 23 485 Can receive up to 8 sections from Python \, for IIR
filters with orders up to 16, f 21;
#X text 615 136 biquad~ 1 always used;
#X text 502 632 DAC for testing purposes only \, not used when patch
is run -batch -nogui, f 25;
#X floatatom 586 184 5 0 0 0 - - - 0;
#X floatatom 526 255 5 0 0 0 - - - 0;
#X floatatom 493 326 5 0 0 0 - - - 0;
#X floatatom 434 396 5 0 0 0 - - - 0;
#X floatatom 403 470 5 0 0 0 - - - 0;
#X floatatom 343 542 5 0 0 0 - - - 0;
#X floatatom 312 611 5 0 0 0 - - - 0;
#X obj 234 44 loadbang;
#X msg 234 68 0;
#X text 300 45 Initalises all lists to 0 \, to ensure unused biquads
are turned off, f 24;
#X text 975 116 Input filename from Python, f 14;
#X text 978 306 Output filename from Python, f 15;
#X obj 514 232 expr abs($i1 - 1);
#X obj 483 302 expr abs($i1 - 1);
#X obj 423 372 expr abs($i1 - 1);
#X obj 392 446 expr abs($i1 - 1);
#X obj 332 518 expr abs($i1 - 1);
#X obj 300 587 expr abs($i1 - 1);
#X text 698 578 Coefficient order: fb1 fb2 ff0 ff1 ff2;
#X text 805 595 or: -a1 -a2 b0 b1 b2 from signal.tf2sos();
#X connect 0 0 3 0;
#X connect 3 0 2 0;
#X connect 4 0 41 0;
#X connect 4 0 10 0;
#X connect 5 0 11 0;
#X connect 5 0 43 0;
#X connect 5 0 14 0;
#X connect 6 0 13 0;
#X connect 6 0 47 0;
#X connect 6 0 65 0;
#X connect 7 0 12 0;
#X connect 7 0 45 0;
#X connect 7 0 15 0;
#X connect 8 0 21 0;
#X connect 9 0 28 0;
#X connect 14 0 63 0;
#X connect 14 0 62 0;
#X connect 15 0 68 0;
#X connect 15 0 67 0;
#X connect 16 0 41 0;
#X connect 16 1 22 0;
#X connect 17 0 16 0;
#X connect 18 0 27 0;
#X connect 19 0 16 0;
#X connect 20 0 17 0;
#X connect 20 0 32 0;
#X connect 21 0 20 0;
#X connect 21 1 20 0;
#X connect 22 0 84 0;
#X connect 24 0 23 0;
#X connect 25 0 23 0;
#X connect 26 0 23 0;
#X connect 26 0 31 0;
#X connect 27 0 19 0;
#X connect 27 0 25 0;
#X connect 28 0 29 0;
#X connect 28 1 29 0;
#X connect 29 0 24 0;
#X connect 29 0 42 0;
#X connect 30 0 1 0;
#X connect 31 0 30 0;
#X connect 37 0 33 0;
#X connect 37 0 49 0;
#X connect 37 0 66 0;
#X connect 38 0 34 0;
#X connect 38 0 51 0;
#X connect 38 0 71 0;
#X connect 39 0 35 0;
#X connect 39 0 53 0;
#X connect 39 0 72 0;
#X connect 40 0 36 0;
#X connect 40 0 55 0;
#X connect 40 0 77 0;
#X connect 41 0 57 0;
#X connect 41 0 58 0;
#X connect 43 0 44 0;
#X connect 44 0 57 1;
#X connect 44 0 80 0;
#X connect 45 0 46 0;
#X connect 46 0 62 1;
#X connect 46 0 100 0;
#X connect 47 0 48 0;
#X connect 48 0 67 1;
#X connect 48 0 101 0;
#X connect 49 0 50 0;
#X connect 50 0 69 1;
#X connect 50 0 102 0;
#X connect 51 0 52 0;
#X connect 52 0 73 1;
#X connect 52 0 103 0;
#X connect 53 0 54 0;
#X connect 54 0 75 1;
#X connect 54 0 104 0;
#X connect 55 0 56 0;
#X connect 56 0 78 1;
#X connect 56 0 105 0;
#X connect 57 0 14 0;
#X connect 58 0 60 0;
#X connect 60 0 59 0;
#X connect 60 0 59 1;
#X connect 60 0 23 0;
#X connect 62 0 15 0;
#X connect 63 0 60 0;
#X connect 65 0 70 0;
#X connect 65 0 69 0;
#X connect 66 0 73 0;
#X connect 66 0 74 0;
#X connect 67 0 65 0;
#X connect 68 0 60 0;
#X connect 69 0 66 0;
#X connect 70 0 60 0;
#X connect 71 0 76 0;
#X connect 71 0 75 0;
#X connect 72 0 79 0;
#X connect 72 0 78 0;
#X connect 73 0 71 0;
#X connect 74 0 60 0;
#X connect 75 0 72 0;
#X connect 76 0 60 0;
#X connect 77 0 60 0;
#X connect 78 0 77 0;
#X connect 79 0 60 0;
#X connect 80 0 58 1;
#X connect 80 0 88 0;
#X connect 84 0 26 0;
#X connect 95 0 96 0;
#X connect 96 0 43 0;
#X connect 96 0 45 0;
#X connect 96 0 47 0;
#X connect 96 0 49 0;
#X connect 96 0 51 0;
#X connect 96 0 53 0;
#X connect 96 0 55 0;
#X connect 100 0 63 1;
#X connect 100 0 89 0;
#X connect 101 0 68 1;
#X connect 101 0 90 0;
#X connect 102 0 70 1;
#X connect 102 0 91 0;
#X connect 103 0 74 1;
#X connect 103 0 92 0;
#X connect 104 0 76 1;
#X connect 104 0 93 0;
#X connect 105 0 79 1;
#X connect 105 0 94 0;
