#N canvas 192 192 450 300 12;
#X obj 29 44 inlet~;
#X obj 30 86 snapshot~;
#X floatatom 30 128 9 0 0 0 - - - 0;
#X obj 81 59 metro 25;
#X obj 81 38 tgl 15 0 empty empty empty 17 7 0 10 #fcfcfc #000000 #000000
0 1;
#X obj 81 15 loadbang;
#X obj 30 168 outlet;
#X connect 0 0 1 0;
#X connect 1 0 2 0;
#X connect 2 0 6 0;
#X connect 3 0 1 0;
#X connect 4 0 3 0;
#X connect 5 0 4 0;
#X coords 0 -1 1 1 60 60 1 20 100;
